<svg width="39" height="40" viewBox="0 0 39 40" fill="none" xmlns="http://www.w3.org/2000/svg">
<path d="M32.0824 39.3488H6.81707C3.07796 39.3488 0.0388912 36.3001 0 32.511V6.90814C0.0388912 3.11063 3.06962 0.0394107 6.81707 0H32.0824C35.8188 0.0394107 38.8301 3.12189 38.8301 6.90814V32.511C38.8301 36.286 35.8104 39.3488 32.0824 39.3488ZM6.81707 1.45538C3.86134 1.49479 1.47231 3.91292 1.43342 6.91095V32.511C1.47231 35.495 3.87245 37.8934 6.81707 37.8934H32.0824C35.0159 37.8934 37.3939 35.4837 37.3939 32.511V6.90814C37.3939 3.92418 35.0271 1.49198 32.0824 1.45257H6.81707V1.45538Z" fill="#5304BF"/>
<path d="M19.9577 0.734375V31.0637C19.9244 31.3706 19.6855 31.6127 19.3827 31.6464H13.9991C11.5295 31.6464 9.51545 29.6393 9.47656 27.1367V0.734375H19.955H19.9577Z" fill="#5304BF"/>
<path d="M26.7718 4.94813C29.6247 4.94813 31.9388 7.29306 31.9388 10.1841C31.9388 13.0752 29.6247 15.4201 26.7718 15.4201H22.1771C21.8604 15.4201 21.6021 15.1583 21.6021 14.8374V10.2545C21.5632 7.36344 23.8438 4.98472 26.6968 4.94531C26.7218 4.94531 26.744 4.94531 26.769 4.94531L26.7718 4.94813Z" fill="#5304BF"/>
<path d="M26.7557 20.9481C29.6086 20.9481 31.9227 23.2931 31.9227 26.1841C31.9227 29.0752 29.6086 31.4201 26.7557 31.4201H22.161C21.8443 31.4201 21.5859 31.1583 21.5859 30.8374V26.2545C21.5859 23.3634 23.9 21.0185 26.7529 21.0185V20.9453L26.7557 20.9481Z" fill="#5304BF"/>
</svg>
